<svg width="512" height="512" viewBox="0 0 512 512" fill="none" xmlns="http://www.w3.org/2000/svg">
  <defs>
    <linearGradient id="hotBg" x1="0%" y1="0%" x2="100%" y2="100%">
      <stop offset="0%" style="stop-color:#DC2626;stop-opacity:1" />
      <stop offset="100%" style="stop-color:#F97316;stop-opacity:1" />
    </linearGradient>
  </defs>
  
  <!-- 背景 -->
  <rect width="512" height="512" rx="112" fill="url(#hotBg)"/>
  
  <!-- 钱包外形 -->
  <rect x="96" y="160" width="320" height="220" rx="32" fill="#FFFFFF" opacity="0.95"/>
  
  <!-- 钱包折叠处 -->
  <path d="M96 200 L416 200" stroke="#DC2626" stroke-width="8" opacity="0.3"/>
  
  <!-- 卡片芯片 -->
  <rect x="136" y="240" width="64" height="48" rx="8" fill="#F97316" opacity="0.9"/>
  <rect x="144" y="248" width="48" height="32" rx="4" fill="#DC2626"/>
  <line x1="156" y1="256" x2="180" y2="256" stroke="#FFFFFF" stroke-width="2" opacity="0.6"/>
  <line x1="156" y1="264" x2="180" y2="264" stroke="#FFFFFF" stroke-width="2" opacity="0.6"/>
  <line x1="156" y1="272" x2="180" y2="272" stroke="#FFFFFF" stroke-width="2" opacity="0.6"/>
  
  <!-- 交易线条 -->
  <line x1="224" y1="260" x2="376" y2="260" stroke="#F97316" stroke-width="12" stroke-linecap="round" opacity="0.4"/>
  <line x1="224" y1="300" x2="340" y2="300" stroke="#F97316" stroke-width="12" stroke-linecap="round" opacity="0.3"/>
  <line x1="224" y1="340" x2="300" y2="340" stroke="#F97316" stroke-width="12" stroke-linecap="round" opacity="0.2"/>
  
  <!-- 在线标识 (WiFi) -->
  <circle cx="400" cy="112" r="36" fill="#10B981" opacity="0.95"/>
  <path d="M380 120 Q400 100 420 120" stroke="#FFFFFF" stroke-width="6" stroke-linecap="round" fill="none"/>
  <path d="M388 112 Q400 100 412 112" stroke="#FFFFFF" stroke-width="6" stroke-linecap="round" fill="none"/>
  <circle cx="400" cy="120" r="6" fill="#FFFFFF"/>
</svg>