<svg width="512" height="512" viewBox="0 0 512 512" fill="none" xmlns="http://www.w3.org/2000/svg">
  <defs>
    <linearGradient id="coldBg" x1="0%" y1="0%" x2="100%" y2="100%">
      <stop offset="0%" style="stop-color:#1E40AF;stop-opacity:1" />
      <stop offset="100%" style="stop-color:#3B82F6;stop-opacity:1" />
    </linearGradient>
  </defs>
  
  <!-- 背景 -->
  <rect width="512" height="512" rx="112" fill="url(#coldBg)"/>
  
  <!-- 盾牌外框 -->
  <path d="M256 80 L400 140 L400 280 Q400 380 256 440 Q112 380 112 280 L112 140 Z" 
        fill="none" stroke="#FFFFFF" stroke-width="24" stroke-linejoin="round" opacity="0.9"/>
  
  <!-- 锁图标 -->
  <rect x="196" y="240" width="120" height="100" rx="16" fill="#FFFFFF" opacity="0.95"/>
  <path d="M216 240 L216 200 Q216 160 256 160 Q296 160 296 200 L296 240" 
        fill="none" stroke="#FFFFFF" stroke-width="20" stroke-linecap="round" opacity="0.95"/>
  <circle cx="256" cy="290" r="16" fill="#1E40AF"/>
  <rect x="250" y="290" width="12" height="28" rx="4" fill="#1E40AF"/>
  
  <!-- 离线标识 (断开的圆) -->
  <circle cx="400" cy="112" r="36" fill="#EF4444" opacity="0.95"/>
  <path d="M384 96 L416 128 M416 96 L384 128" stroke="#FFFFFF" stroke-width="8" stroke-linecap="round"/>
</svg>